<svg xmlns="http://www.w3.org/2000/svg" viewBox="0 0 60 18" preserveAspectRatio="none" role="img" aria-label="Barcode placeholder">
  <g fill="#1a1714">
    <rect x="0"  y="0" width="1" height="14"/>
    <rect x="2"  y="0" width="2" height="14"/>
    <rect x="5"  y="0" width="1" height="14"/>
    <rect x="7"  y="0" width="1" height="14"/>
    <rect x="9"  y="0" width="3" height="14"/>
    <rect x="13" y="0" width="1" height="14"/>
    <rect x="15" y="0" width="2" height="14"/>
    <rect x="18" y="0" width="1" height="14"/>
    <rect x="20" y="0" width="1" height="14"/>
    <rect x="22" y="0" width="3" height="14"/>
    <rect x="26" y="0" width="1" height="14"/>
    <rect x="28" y="0" width="2" height="14"/>
    <rect x="31" y="0" width="1" height="14"/>
    <rect x="33" y="0" width="2" height="14"/>
    <rect x="36" y="0" width="1" height="14"/>
    <rect x="38" y="0" width="1" height="14"/>
    <rect x="40" y="0" width="3" height="14"/>
    <rect x="44" y="0" width="1" height="14"/>
    <rect x="46" y="0" width="2" height="14"/>
    <rect x="49" y="0" width="1" height="14"/>
    <rect x="51" y="0" width="2" height="14"/>
    <rect x="54" y="0" width="1" height="14"/>
    <rect x="56" y="0" width="1" height="14"/>
    <rect x="58" y="0" width="2" height="14"/>
  </g>
</svg>
